<?xml version="1.0" standalone="no"?>
<!DOCTYPE svg PUBLIC "-//W3C//DTD SVG 20010904//EN"
 "http://www.w3.org/TR/2001/REC-SVG-20010904/DTD/svg10.dtd">
<svg version="1.0" xmlns="http://www.w3.org/2000/svg"
 width="900.000000pt" height="900.000000pt" viewBox="0 0 900.000000 900.000000"
 preserveAspectRatio="xMidYMid meet">
<metadata>
Created by potrace 1.14, written by Peter Selinger 2001-2017
</metadata>
<g transform="translate(0.000000,900.000000) scale(0.100000,-0.100000)"
fill="#000000" stroke="none">
<path d="M4675 8720 c-254 -54 -338 -78 -350 -96 -5 -9 -33 -50 -60 -92 -28
-43 -65 -101 -83 -129 -17 -29 -38 -53 -45 -53 -8 0 -22 -10 -33 -21 -10 -12
-113 -101 -229 -199 -251 -211 -405 -357 -492 -464 -71 -87 -71 -97 -1 -118
50 -15 42 -19 -110 -52 -144 -32 -169 -42 -178 -70 -12 -39 -82 -130 -184
-241 -56 -60 -126 -150 -157 -200 -54 -87 -56 -92 -57 -164 l-1 -74 -65 -39
c-132 -80 -140 -99 -71 -174 28 -31 51 -61 51 -67 -1 -7 -7 -41 -15 -77 -8
-36 -14 -83 -15 -106 l0 -41 -132 -81 c-118 -73 -134 -80 -148 -67 -9 8 -31
15 -49 15 -18 0 -64 10 -103 21 -45 14 -84 20 -109 16 -37 -5 -39 -4 -34 16 4
12 27 57 51 99 24 43 44 81 44 86 0 5 9 19 20 32 21 24 17 42 -18 73 -18 16
-21 16 -65 -3 -25 -11 -49 -26 -54 -33 -4 -6 -28 -72 -53 -147 l-46 -135 -129
-22 c-189 -33 -262 -54 -450 -128 -247 -97 -401 -191 -548 -334 -77 -74 -101
-114 -121 -200 -8 -33 -24 -72 -35 -87 -12 -15 -21 -32 -21 -39 0 -7 -20 -33
-44 -57 -47 -47 -158 -209 -182 -267 l-15 -36 44 -40 c148 -135 143 -132 247
-140 56 -4 112 -14 135 -25 54 -24 105 -35 261 -57 l130 -18 12 -50 c7 -28 12
-64 12 -81 0 -17 10 -46 23 -65 18 -27 31 -35 59 -37 30 -3 40 1 53 22 14 21
16 40 10 111 l-7 85 68 0 c69 -1 268 -14 397 -26 l67 -7 0 -38 c0 -83 42 -139
103 -139 31 0 45 7 68 31 24 26 29 40 29 81 l0 51 62 -6 c35 -3 203 -14 373
-23 171 -9 312 -18 314 -20 2 -2 16 -134 30 -295 l27 -291 -21 -8 c-28 -11
-62 -49 -78 -90 -20 -47 -20 -257 -1 -423 8 -71 14 -132 14 -136 0 -4 -15 -7
-34 -8 -49 -1 -72 -17 -103 -71 -25 -42 -28 -56 -26 -132 2 -134 2 -141 1
-219 -2 -71 0 -75 28 -100 17 -14 34 -34 37 -44 15 -41 133 -202 159 -216 l28
-16 0 -180 c0 -99 5 -209 10 -245 14 -84 84 -257 130 -318 36 -47 177 -162
259 -210 61 -36 140 -36 248 1 l83 28 28 -21 c16 -12 47 -24 69 -27 l41 -5 7
-140 c6 -119 5 -141 -8 -151 -15 -12 -177 -626 -192 -728 l-7 -46 84 -28 c100
-34 188 -71 188 -81 0 -26 31 -352 35 -362 7 -20 45 -15 45 7 0 33 -30 305
-36 323 -4 13 20 5 98 -31 112 -53 302 -117 376 -127 39 -5 59 0 116 25 l68
31 -5 -32 c-3 -18 -9 -72 -13 -120 l-6 -88 24 0 c24 0 25 3 31 83 4 45 7 103
7 128 0 44 2 47 39 64 70 31 77 21 84 -113 9 -147 13 -162 43 -162 20 0 24 4
20 23 -10 45 -28 228 -24 233 3 2 54 -12 113 -31 96 -32 112 -34 139 -24 17 7
97 41 177 76 80 34 150 63 155 63 6 0 6 -34 2 -83 -3 -45 -7 -121 -7 -169 -1
-87 -1 -88 24 -88 24 0 25 2 26 78 1 42 3 124 5 182 l4 105 62 26 c110 44 139
61 148 85 5 12 18 28 29 33 20 11 20 12 -3 74 -13 34 -47 141 -75 237 -29 96
-69 227 -90 290 -36 107 -38 120 -31 180 5 36 12 116 16 179 4 65 10 107 15
99 4 -8 31 -106 59 -219 28 -112 68 -262 90 -334 35 -118 39 -140 37 -232 -1
-86 1 -105 16 -120 11 -12 20 -14 25 -8 4 6 40 10 79 10 72 0 73 0 79 -30 3
-16 15 -44 25 -61 10 -17 19 -40 19 -51 0 -31 68 -83 167 -127 l62 -28 70 32
c94 44 105 57 109 138 3 65 1 70 -51 162 l-55 95 39 37 c22 21 39 42 39 47 0
5 -16 44 -35 86 -40 89 -79 226 -130 455 -19 91 -49 217 -65 280 -16 63 -36
156 -45 205 -9 50 -25 123 -36 164 -11 40 -18 76 -15 78 2 2 35 15 72 27 60
20 69 27 80 57 7 19 13 44 13 56 1 13 -46 93 -108 185 -60 90 -114 174 -120
188 -13 30 -134 508 -134 530 0 8 -4 21 -10 28 -7 9 -2 12 22 12 17 0 47 7 66
14 l35 15 0 -72 c0 -40 4 -78 9 -86 14 -22 74 11 118 66 21 26 50 59 64 75 23
23 28 42 38 125 16 137 76 728 106 1038 32 342 33 345 50 339 9 -4 19 4 26 19
10 23 16 24 122 30 100 5 297 29 592 72 164 24 268 34 520 50 132 8 325 24
429 35 183 19 191 20 236 52 26 18 102 70 169 116 66 45 121 84 121 86 0 2
-11 24 -25 47 -14 24 -25 54 -25 66 0 12 -4 25 -10 28 -25 15 -6 58 63 145 39
51 81 107 92 124 11 18 28 41 39 51 22 22 24 20 -74 80 -132 81 -190 115 -265
155 -44 24 -165 95 -270 157 -238 144 -170 121 -1190 393 -452 120 -405 106
-405 124 0 8 -16 37 -35 66 -54 81 -55 94 -4 218 19 45 5 62 -72 90 -35 13
-65 24 -66 26 -2 1 10 21 27 44 16 23 30 48 30 56 0 8 -28 43 -62 78 -35 35
-73 77 -85 92 -19 23 -28 27 -53 21 l-30 -7 -1 54 c-3 143 -30 201 -146 315
l-83 82 51 48 c61 58 65 59 87 39 48 -43 144 -58 205 -32 44 19 106 81 128
130 23 52 26 203 5 244 -21 39 -75 89 -118 106 -68 29 -165 15 -226 -31 -18
-14 -39 -22 -47 -19 -33 12 -228 150 -320 225 -55 46 -143 117 -195 158 -52
42 -104 86 -115 98 -24 27 -241 85 -313 84 -26 0 -128 -18 -227 -39z m393 -45
c74 -21 103 -35 135 -64 77 -70 211 -186 297 -256 47 -39 86 -73 88 -76 2 -4
24 -34 50 -66 75 -93 96 -151 96 -258 0 -70 -5 -100 -22 -137 -12 -27 -24 -48
-27 -48 -9 0 -226 170 -278 217 -46 43 -76 52 -85 25 -6 -19 96 -115 273 -259
189 -152 276 -239 309 -305 22 -45 26 -65 26 -144 0 -115 16 -132 90 -100 11
4 21 -4 34 -25 10 -17 38 -49 61 -71 l43 -40 -23 -35 c-13 -18 -25 -38 -27
-43 -2 -5 -41 -1 -88 10 -118 27 -221 35 -248 21 -31 -16 -27 -28 11 -36 17
-3 61 -12 97 -20 36 -7 132 -26 213 -41 81 -15 150 -31 153 -36 3 -5 -4 -32
-16 -60 -32 -74 -30 -124 9 -192 17 -31 28 -56 23 -56 -20 0 -323 73 -372 89
-109 37 -890 65 -922 33 -6 -6 -1 -12 14 -15 62 -15 309 -37 538 -47 140 -7
284 -15 320 -20 72 -9 481 -112 750 -189 96 -27 306 -84 465 -126 160 -42 371
-100 471 -130 99 -30 187 -55 195 -55 8 0 64 -32 124 -71 97 -62 198 -122 385
-227 30 -18 50 -32 43 -32 -17 0 -288 95 -443 155 -137 53 -312 129 -385 167
-26 13 -96 29 -195 44 -85 12 -261 38 -390 58 -879 131 -1883 232 -2360 237
l-155 2 -345 -77 c-190 -42 -428 -95 -530 -117 -325 -72 -621 -146 -940 -237
l-135 -38 -35 -71 -35 -71 -23 50 c-28 57 -24 84 15 129 53 59 503 294 713
372 128 47 150 58 150 73 0 25 -18 23 -131 -17 -63 -22 -132 -46 -155 -54 -22
-7 -91 -38 -153 -70 -62 -31 -115 -54 -118 -51 -3 2 2 40 10 83 32 162 35 144
-31 205 l-59 54 186 96 c296 153 693 299 876 323 459 61 1339 66 1695 11 75
-11 87 -11 103 2 14 13 15 18 5 28 -30 28 -292 49 -758 60 -336 7 -589 -3
-885 -37 -99 -12 -202 -23 -230 -24 -27 -1 -79 -12 -113 -24 -234 -80 -443
-161 -542 -209 -63 -31 -118 -58 -122 -60 -5 -2 -8 21 -8 50 0 50 5 62 59 141
33 48 105 136 160 197 85 92 170 204 183 240 2 5 62 20 133 35 240 49 317 112
173 140 -28 6 -53 15 -55 21 -5 16 257 259 508 471 118 100 228 196 246 214
30 32 119 158 186 262 21 33 37 47 53 47 12 0 35 5 51 11 56 21 459 99 493 95
19 -3 77 -16 128 -31z m1042 -500 c59 -30 78 -55 86 -117 10 -70 -12 -144 -55
-188 -59 -61 -104 -74 -168 -49 -42 16 -45 31 -14 64 30 32 51 82 51 122 0 29
-36 84 -73 113 -33 26 -34 36 -4 51 62 34 116 35 177 4z m-286 -45 c36 -22 69
-40 73 -40 5 0 21 -21 36 -46 28 -46 28 -46 10 -82 -15 -31 -152 -156 -161
-147 -2 1 2 24 9 50 16 62 6 176 -20 245 -12 30 -21 56 -21 58 0 6 12 0 74
-38z m-3738 -1714 c7 -18 -20 -70 -60 -117 -17 -20 -48 -78 -70 -128 -39 -94
-58 -119 -31 -41 9 24 22 71 30 104 20 88 59 170 87 183 31 16 38 15 44 -1z
m2699 -36 c116 -6 309 -19 430 -30 266 -25 1025 -109 1035 -115 3 -2 15 -32
25 -67 9 -35 35 -110 56 -168 21 -58 42 -123 48 -145 14 -52 15 -228 1 -220
-5 3 -37 42 -70 86 -34 43 -67 79 -75 79 -9 0 -15 10 -15 24 0 55 -34 79 -46
32 -7 -28 0 -62 51 -254 42 -162 79 -399 71 -465 -4 -35 -98 -339 -110 -354 0
-1 -2 59 -3 132 -2 132 -11 175 -37 175 -10 0 -14 -37 -19 -152 -4 -84 -20
-288 -36 -453 -30 -292 -63 -678 -76 -879 -10 -150 -32 -305 -47 -324 -7 -9
-31 -39 -53 -66 l-40 -50 -5 60 c-4 50 -1 64 18 93 25 39 24 55 -4 59 -14 2
-24 -5 -31 -21 -11 -23 -120 -87 -148 -87 -24 0 -66 42 -90 90 -21 41 -85 238
-85 261 0 4 39 5 88 3 49 -3 93 -1 101 5 16 10 34 154 33 261 0 36 -14 135
-31 220 -43 217 -90 511 -97 600 -3 41 -12 113 -20 159 -18 105 -18 98 9 105
13 3 32 21 42 39 18 33 18 35 -1 61 -10 14 -32 29 -48 34 -21 6 -31 17 -42 47
-7 22 -12 40 -11 40 24 13 87 62 142 109 86 73 305 288 305 298 0 5 -8 8 -18
8 -20 0 -69 -41 -276 -226 -137 -123 -208 -175 -221 -162 -3 3 1 31 10 64 17
67 20 160 5 199 -8 21 -6 34 12 64 37 65 -1 101 -41 39 -41 -67 -292 -293
-391 -353 -32 -19 -75 -42 -95 -51 l-38 -15 7 48 c4 26 9 119 11 207 3 125 7
163 20 183 18 27 8 50 -18 40 -16 -6 -132 -153 -173 -219 -60 -97 -232 -274
-257 -265 -7 2 -25 29 -40 60 -16 31 -35 57 -42 57 -20 0 -42 -37 -50 -83 -4
-20 -11 -40 -17 -43 -11 -7 -70 37 -121 91 -36 37 -153 208 -219 319 -15 25
-31 46 -37 46 -10 0 -62 -104 -80 -160 -6 -19 -15 -75 -20 -123 -5 -48 -11
-90 -14 -93 -8 -8 -111 60 -177 115 -80 67 -120 113 -165 193 -22 39 -44 70
-50 70 -17 -2 -17 -48 -1 -86 14 -34 14 -36 -3 -36 -11 0 -25 -13 -34 -32 -17
-36 -47 -172 -47 -213 l0 -25 -42 26 c-125 77 -272 226 -310 314 -24 56 -65
100 -92 100 -12 0 -37 -9 -56 -19 -19 -11 -75 -40 -123 -65 -49 -25 -117 -66
-153 -91 -35 -25 -64 -44 -64 -41 0 10 81 395 99 469 10 43 23 82 27 87 23 23
560 151 1209 289 132 28 299 64 370 81 104 23 146 28 210 24 44 -2 175 -9 290
-14z m-2645 -300 c30 -11 70 -19 88 -20 35 0 39 -11 17 -50 -19 -33 -19 -89 1
-136 35 -84 3 -197 -91 -320 -56 -73 -120 -199 -161 -318 -33 -95 -35 -309 -4
-409 19 -60 19 -67 4 -103 -13 -32 -14 -47 -4 -97 10 -50 9 -62 -5 -83 -8 -13
-24 -24 -35 -24 -33 0 -43 35 -35 124 18 187 1 380 -40 439 -20 30 -25 32 -77
31 -59 -1 -64 -3 -222 -89 -81 -44 -96 -48 -176 -54 -110 -8 -126 -19 -129
-95 -1 -29 3 -74 10 -99 9 -39 8 -53 -6 -91 -15 -39 -16 -54 -6 -102 12 -65 8
-79 -19 -61 -13 7 -20 23 -20 43 0 17 -6 50 -14 72 -10 27 -12 51 -7 70 17 58
23 149 12 189 -11 40 -45 73 -74 73 -7 0 -50 27 -95 60 -52 38 -92 60 -110 60
-15 0 -45 12 -67 25 -22 14 -53 25 -70 25 -36 1 -60 30 -74 92 -10 43 -49 88
-76 88 -11 0 -11 7 4 33 10 17 24 61 30 96 11 64 31 100 95 169 44 48 218 173
306 220 93 51 408 176 475 190 28 6 75 15 105 21 208 40 201 40 191 4 -7 -25
-12 -28 -43 -25 -35 3 -36 2 -58 -54 -31 -84 -45 -142 -36 -151 12 -12 32 22
56 97 12 39 27 70 32 70 18 0 20 -31 4 -70 -20 -50 -21 -80 -2 -80 14 0 46 77
46 111 0 12 5 16 15 13 9 -4 15 -19 15 -35 0 -42 27 -37 39 8 7 24 7 39 1 43
-6 4 -1 27 12 58 17 40 27 52 47 55 58 9 99 5 151 -13z m842 -504 c40 -83 204
-268 299 -337 58 -42 59 -45 59 -91 0 -37 -4 -48 -19 -53 -27 -8 -46 -58 -32
-84 6 -11 18 -24 26 -29 13 -7 14 -33 5 -197 -5 -105 -10 -333 -10 -507 l0
-316 -27 -53 c-14 -30 -54 -165 -89 -307 -35 -140 -69 -261 -75 -268 -10 -12
-14 -10 -25 12 -8 14 -14 37 -14 49 0 13 -5 45 -10 72 -6 26 -19 115 -30 196
-24 171 -49 250 -94 292 -32 30 -32 32 -45 175 -39 465 -96 852 -131 895 -5 6
-18 56 -29 112 -12 56 -26 115 -32 130 -6 17 -8 56 -4 100 6 64 5 72 -12 75
-12 2 15 22 77 55 52 28 115 65 140 82 25 16 48 30 51 30 3 1 13 -14 21 -33z
m1056 -95 c28 -64 153 -239 206 -289 57 -54 148 -104 172 -95 7 3 19 20 26 39
6 19 15 34 18 34 4 0 16 -11 28 -25 13 -15 33 -25 48 -25 33 0 133 70 194 136
56 60 164 202 173 228 4 10 10 17 12 14 6 -5 -23 -339 -30 -346 -2 -2 -38 -8
-80 -12 -42 -4 -78 -9 -80 -12 -2 -2 -5 -21 -7 -41 -3 -46 7 -53 84 -62 l58
-7 0 -68 c0 -108 20 -273 36 -297 19 -30 100 -53 205 -60 102 -7 141 8 158 59
15 49 39 192 47 281 l7 79 41 -6 c22 -3 69 -8 103 -12 l61 -6 7 -72 c8 -93 44
-385 50 -413 3 -12 1 -24 -4 -27 -4 -3 -11 -23 -15 -44 -3 -21 -23 -65 -44
-98 -126 -194 -494 -398 -785 -434 -110 -13 -449 -14 -516 -1 -150 30 -303 96
-460 198 -145 94 -291 258 -337 379 -9 24 -23 44 -30 44 -11 0 -13 41 -7 233
3 127 7 233 8 235 2 2 47 6 100 9 111 7 115 5 115 -67 0 -51 14 -144 36 -242
15 -63 17 -67 55 -82 76 -31 278 -18 308 18 14 17 43 222 43 312 l1 82 41 5
c66 9 85 60 46 124 -23 38 -53 48 -116 38 l-46 -7 4 109 c4 98 30 223 47 223
4 0 12 -13 19 -29z m1396 -203 c-21 -93 -16 -108 31 -108 29 0 35 -4 35 -21 0
-20 -4 -21 -57 -16 -32 4 -136 10 -231 13 l-173 7 53 29 c68 37 173 118 273
211 l80 74 3 -56 c2 -31 -4 -90 -14 -133z m-1858 129 c43 -56 125 -126 216
-185 31 -20 57 -40 58 -43 0 -3 -42 -9 -92 -13 -51 -3 -151 -15 -222 -26 -156
-24 -146 -24 -146 0 0 16 5 19 29 14 38 -8 61 24 61 84 0 49 38 222 48 221 4
0 25 -24 48 -52z m-2905 -158 c4 -6 10 -30 13 -52 9 -57 70 -117 118 -117 20
0 46 -8 59 -18 13 -11 43 -22 67 -26 42 -6 92 -31 92 -45 0 -9 -267 -54 -278
-47 -5 3 -44 -1 -87 -9 -127 -25 -165 -21 -211 20 -34 30 -37 36 -24 47 8 7
26 36 39 65 13 29 36 65 51 80 14 15 39 50 56 76 27 45 31 48 63 43 19 -3 38
-11 42 -17z m3200 -286 c9 -10 14 -41 14 -87 -1 -119 -46 -171 -95 -108 -19
23 -21 37 -18 99 2 52 8 77 22 92 23 25 58 27 77 4z m1247 -23 c16 -30 10
-164 -8 -186 -17 -19 -43 -18 -71 5 -19 16 -23 27 -23 82 0 61 14 105 38 122
20 13 50 2 64 -23z m-1650 -690 c145 -190 474 -383 707 -415 76 -10 82 -13 87
-45 4 -27 2 -30 -23 -30 -50 0 -233 -95 -266 -138 -34 -42 -6 -92 50 -92 20 0
26 -6 29 -29 l4 -29 -167 -56 c-92 -31 -188 -68 -214 -83 -42 -23 -47 -24 -41
-7 17 58 56 279 56 320 0 55 -4 64 -41 83 -31 16 -65 7 -79 -20 -21 -37 -30
-18 -30 60 0 64 -5 89 -25 128 -33 67 -56 86 -105 86 l-40 0 0 210 0 211 36
-60 c19 -32 47 -75 62 -94z m2211 -365 c0 -27 -2 -81 -2 -120 l-2 -70 -51 -3
c-33 -2 -70 4 -104 17 -59 22 -70 20 -70 -12 0 -21 61 -261 76 -301 6 -15 -4
-11 -39 16 -50 38 -74 44 -298 69 l-106 11 10 29 c9 23 8 32 -6 47 -17 19 -17
20 18 40 40 24 42 32 18 54 -18 15 -135 56 -220 77 -126 32 -123 30 -123 59 0
26 2 27 113 49 91 18 133 33 223 78 229 115 381 231 455 346 l33 52 38 -194
c21 -107 38 -216 37 -244z m-2763 41 c26 -41 87 -319 105 -481 12 -111 31
-196 44 -195 6 0 24 5 42 11 54 17 87 98 143 348 26 119 55 233 64 253 31 72
107 93 145 39 18 -25 21 -44 21 -148 0 -122 -16 -229 -66 -426 -26 -104 -25
-138 4 -130 13 3 30 -21 75 -112 l59 -116 -12 -127 c-7 -75 -17 -136 -25 -149
-8 -12 -47 -48 -87 -79 l-72 -58 -145 -4 c-100 -2 -160 -9 -189 -19 l-43 -16
-57 40 c-35 24 -81 72 -120 124 l-63 84 85 7 c91 8 139 26 156 57 16 31 12 89
-8 109 -18 18 -18 19 0 42 10 12 18 28 18 36 0 8 4 14 10 14 31 0 15 138 -22
185 -11 15 -53 42 -93 60 l-71 32 -13 154 c-16 192 -16 352 -2 404 7 26 22 48
43 63 41 28 54 28 74 -2z m1804 -161 c0 -44 4 -56 20 -65 11 -6 20 -17 20 -25
0 -8 13 -15 33 -17 46 -4 42 -30 -8 -42 -22 -5 -134 -10 -250 -10 -225 -1
-286 9 -293 47 -3 15 0 18 17 12 35 -11 61 26 61 90 l0 54 153 4 c83 1 173 4
200 5 l47 2 0 -55z m-1090 -122 c-1 -50 -86 -441 -100 -457 -12 -15 -14 -14
-28 6 -8 13 -26 35 -40 50 l-25 27 23 98 c27 117 59 191 113 256 45 54 57 58
57 20z m1469 -289 c19 -14 22 -22 17 -53 -14 -84 -3 -306 19 -393 5 -18 3 -28
-4 -28 -6 0 -11 -7 -11 -15 0 -11 7 -14 24 -9 26 6 46 -13 26 -26 -21 -13
-137 -22 -180 -15 -46 8 -54 25 -12 25 45 0 74 11 63 24 -5 6 -14 72 -20 146
-19 224 -20 230 -36 246 -38 39 1 114 60 114 17 0 41 -7 54 -16z m-2288 -120
c52 -19 102 -38 111 -41 20 -6 43 -92 34 -127 -3 -12 -18 -35 -33 -51 -27 -26
-31 -27 -96 -21 -73 7 -159 43 -176 73 -22 42 28 198 65 203 1 0 44 -16 95
-36z m-89 -270 c40 -20 73 -28 136 -32 l84 -5 -5 -39 c-3 -22 -7 -41 -9 -44
-10 -9 -192 -24 -229 -18 -58 10 -70 53 -43 147 7 22 5 22 66 -9z m2481 -457
c5 -144 -2 -186 -23 -132 -11 29 -14 278 -3 289 16 15 21 -17 26 -157z m-1685
5 c9 -60 7 -93 -9 -185 -10 -62 -25 -172 -33 -245 -7 -73 -16 -136 -20 -139
-8 -8 -143 34 -151 47 -3 5 19 63 51 127 83 174 139 405 109 453 -4 6 1 17 11
25 25 18 30 8 42 -83z m-122 -104 c-13 -51 -30 -113 -36 -137 l-11 -43 -27 25
c-15 13 -65 52 -112 85 -104 73 -180 149 -159 157 8 3 77 6 154 8 121 2 145 5
175 23 l35 21 3 -23 c2 -13 -8 -65 -22 -116z m-408 6 c27 -119 64 -240 85
-279 17 -31 37 -48 92 -76 50 -25 71 -42 73 -57 2 -15 -2 -22 -14 -22 -33 0
-164 72 -186 102 -54 77 -121 362 -91 392 16 15 29 -4 41 -60z m1572 -86 c0
-39 -12 -68 -26 -68 -15 0 -21 70 -7 83 14 15 33 6 33 -15z m-60 -20 c0 -6 -7
-19 -16 -29 -24 -27 -9 -57 32 -65 41 -7 64 8 64 42 0 32 26 31 32 -1 11 -57
-37 -94 -106 -81 -68 13 -97 72 -60 124 16 23 54 30 54 10z m585 -185 c12 -15
16 -16 39 -4 31 17 43 10 21 -13 -22 -22 -62 -20 -75 3 -18 34 -7 44 15 14z
m774 -80 c23 -146 61 -321 85 -400 13 -43 40 -157 61 -253 43 -207 81 -327
134 -434 l40 -78 -72 -47 c-89 -58 -157 -87 -222 -96 -27 -4 -77 -13 -110 -21
-33 -8 -78 -14 -99 -14 l-39 0 6 102 c4 87 2 116 -18 193 -13 49 -53 204 -89
342 -37 145 -78 281 -96 319 l-32 65 7 130 8 129 66 20 c36 11 125 43 196 70
72 27 137 49 146 49 11 1 18 -18 28 -76z m-1443 -8 c28 -19 250 -93 333 -111
36 -7 111 -14 166 -14 55 0 131 -3 168 -7 l68 -6 -6 -171 c-3 -94 -11 -236
-17 -316 -13 -185 -15 -167 25 -252 19 -40 51 -118 72 -173 20 -55 44 -113 52
-129 13 -25 14 -40 3 -97 -6 -38 -17 -72 -23 -77 -7 -5 -32 -13 -57 -17 -76
-12 -274 -72 -418 -126 -75 -29 -141 -52 -147 -51 -12 1 -274 50 -470 87 -77
15 -169 36 -205 46 l-65 18 -37 75 -37 75 20 93 c10 51 33 152 49 223 28 118
31 149 33 340 2 116 6 219 9 230 2 11 14 24 26 30 12 5 22 16 22 23 0 7 31 48
69 90 38 42 86 100 107 127 20 28 38 51 39 53 1 1 33 13 71 27 80 28 121 31
150 10z m950 -322 c-4 -120 -13 -285 -21 -368 -20 -202 -19 -225 3 -225 14 0
26 -33 66 -177 27 -98 66 -232 87 -298 l39 -120 -33 -27 c-17 -15 -94 -52
-171 -83 -76 -31 -201 -86 -277 -122 -137 -65 -140 -66 -172 -51 -72 34 -225
78 -269 78 -45 0 -179 -49 -236 -86 -16 -10 -34 -13 -55 -9 -107 23 -278 85
-438 159 -101 46 -212 93 -246 103 -35 10 -63 23 -63 29 0 33 160 638 170 644
8 5 14 68 18 201 l5 194 53 26 53 25 3 -184 c3 -169 1 -191 -20 -256 -29 -93
-47 -171 -66 -286 l-15 -94 47 -89 c46 -88 48 -90 102 -109 60 -21 434 -104
595 -133 l101 -17 204 66 c113 37 259 81 326 97 139 35 144 38 148 70 2 13 9
51 16 84 12 61 12 61 -40 210 -28 81 -67 179 -86 216 l-34 68 10 98 c5 54 12
196 16 316 l7 217 32 0 c17 0 53 11 81 24 27 14 53 25 58 25 5 1 6 -88 2 -216z
m783 -1037 c72 -131 69 -175 -13 -224 -28 -18 -61 -32 -71 -32 -28 0 -91 23
-112 41 -10 8 -30 23 -45 32 -26 16 -36 45 -22 60 3 3 27 -10 54 -29 55 -39
90 -43 139 -13 l33 20 -7 71 c-3 39 -14 89 -22 111 -14 33 -14 40 -2 48 8 5
15 9 16 9 1 0 24 -42 52 -94z m-95 -68 l7 -57 -34 -6 c-46 -9 -80 13 -107 69
-30 63 -27 69 43 92 l62 20 11 -31 c6 -16 14 -56 18 -87z m-192 37 c11 -41 -7
-53 -21 -14 -14 41 -14 52 1 47 7 -3 15 -17 20 -33z"/>
<path d="M2165 5803 c-21 -73 -93 -206 -140 -258 -60 -68 -40 -78 27 -12 50
48 146 231 150 286 5 57 -19 47 -37 -16z"/>
<path d="M1368 5765 c-68 -54 -104 -109 -85 -133 6 -8 10 -31 9 -52 -2 -21 2
-41 8 -45 18 -11 50 6 56 31 7 27 26 31 44 9 14 -17 50 -20 50 -4 0 5 15 16
33 24 19 8 50 33 71 57 20 24 44 51 53 60 25 28 9 43 -63 62 -121 32 -124 31
-176 -9z m90 6 c9 -5 43 -14 74 -21 54 -11 56 -12 40 -29 -9 -10 -32 -37 -51
-60 -22 -26 -42 -41 -57 -41 -13 0 -27 -7 -32 -16 -8 -14 -10 -14 -21 0 -22
26 -60 20 -73 -11 l-12 -28 -4 35 c-2 19 -8 40 -13 47 -7 8 -4 18 9 31 11 11
21 24 23 28 4 9 89 74 96 74 2 0 11 -4 21 -9z"/>
<path d="M1864 5374 c-40 -59 -111 -109 -174 -120 -61 -11 -144 -46 -182 -76
-20 -15 -63 -41 -95 -56 -51 -24 -69 -27 -153 -26 -173 3 -230 23 -341 122
-38 34 -68 52 -85 52 -14 0 -23 -4 -19 -10 3 -5 13 -10 21 -10 9 0 39 -23 67
-51 98 -98 158 -123 325 -134 119 -8 198 13 287 76 36 27 90 52 144 69 143 45
190 76 240 160 46 77 16 81 -35 4z"/>
<path d="M4294 4585 c-6 -25 17 -75 36 -75 13 0 22 18 11 24 -5 3 -12 22 -15
41 -8 41 -23 46 -32 10z"/>
<path d="M4455 4284 c-117 -23 -125 -26 -150 -55 -45 -55 -29 -143 38 -206 46
-44 105 -63 190 -63 62 1 78 4 112 28 62 43 99 112 100 184 0 55 -3 62 -33 89
-31 28 -35 29 -135 28 -56 -1 -111 -3 -122 -5z m185 -209 c15 -18 1 -39 -41
-61 -37 -19 -140 -18 -187 2 l-37 15 45 21 c68 31 90 36 151 37 39 1 60 -4 69
-14z"/>
<path d="M3261 3110 c-81 -45 -161 -108 -172 -136 -5 -14 -9 -44 -9 -68 0 -53
35 -91 105 -111 41 -13 56 -13 114 -1 127 28 142 29 162 10 18 -16 19 -16 19
18 0 24 -6 38 -16 42 -28 11 -94 6 -158 -10 -100 -26 -176 -2 -176 57 0 49 14
63 120 124 109 62 134 81 125 96 -11 17 -60 8 -114 -21z"/>
<path d="M5013 3333 c-20 -7 -15 -51 6 -63 30 -15 49 -12 61 10 17 32 3 60
-28 59 -15 0 -33 -3 -39 -6z"/>
<path d="M5033 3213 c7 -22 18 -187 19 -265 0 -47 3 -58 17 -58 33 0 40 13 31
55 -6 22 -12 94 -15 160 l-5 120 -26 3 c-21 3 -25 0 -21 -15z"/>
<path d="M5092 1700 c0 -19 2 -27 5 -17 2 9 2 25 0 35 -3 9 -5 1 -5 -18z"/>
<path d="M3960 1621 c0 -11 5 -23 10 -26 6 -4 10 5 10 19 0 14 -4 26 -10 26
-5 0 -10 -9 -10 -19z"/>
<path d="M5080 1595 c0 -8 5 -15 10 -15 6 0 10 7 10 15 0 8 -4 15 -10 15 -5 0
-10 -7 -10 -15z"/>
<path d="M3962 1516 c2 -15 8 -26 13 -26 15 0 12 43 -3 48 -10 3 -13 -4 -10
-22z"/>
<path d="M5070 1476 c0 -14 5 -28 10 -31 6 -4 10 7 10 24 0 17 -4 31 -10 31
-5 0 -10 -11 -10 -24z"/>
<path d="M3965 1420 c-8 -13 3 -50 16 -50 12 0 12 47 0 55 -5 3 -12 1 -16 -5z"/>
<path d="M5077 1373 c-11 -10 -8 -43 3 -43 6 0 10 11 10 25 0 26 -2 29 -13 18z"/>
<path d="M3960 1280 c0 -11 5 -20 10 -20 6 0 10 9 10 20 0 11 -4 20 -10 20 -5
0 -10 -9 -10 -20z"/>
<path d="M5067 1253 c-12 -11 -8 -23 8 -23 8 0 15 7 15 15 0 16 -12 20 -23 8z"/>
<path d="M3940 1149 c0 -11 5 -17 10 -14 6 3 10 13 10 21 0 8 -4 14 -10 14 -5
0 -10 -9 -10 -21z"/>
<path d="M5070 1153 c0 -10 4 -25 10 -33 8 -12 10 -12 16 3 7 20 -1 47 -16 47
-5 0 -10 -8 -10 -17z"/>
<path d="M5122 1044 c1 -9 9 -19 16 -22 9 -3 13 2 10 14 -1 9 -9 19 -16 22 -9
3 -13 -2 -10 -14z"/>
<path d="M3920 1025 c0 -8 2 -15 4 -15 2 0 6 7 10 15 3 8 1 15 -4 15 -6 0 -10
-7 -10 -15z"/>
<path d="M5172 949 c2 -7 10 -15 17 -17 8 -3 12 1 9 9 -2 7 -10 15 -17 17 -8
3 -12 -1 -9 -9z"/>
<path d="M3882 918 c-15 -15 -16 -38 -2 -38 12 0 23 25 18 40 -2 7 -7 7 -16
-2z"/>
<path d="M5220 870 c0 -5 5 -10 10 -10 6 0 10 5 10 10 0 6 -4 10 -10 10 -5 0
-10 -4 -10 -10z"/>
<path d="M5227 793 c-12 -11 -8 -23 8 -23 8 0 15 7 15 15 0 16 -12 20 -23 8z"/>
<path d="M5160 710 c0 -5 7 -10 15 -10 8 0 15 5 15 10 0 6 -7 10 -15 10 -8 0
-15 -4 -15 -10z"/>
<path d="M3902 694 c1 -9 9 -19 16 -22 9 -3 13 2 10 14 -1 9 -9 19 -16 22 -9
3 -13 -2 -10 -14z"/>
<path d="M5040 670 c0 -5 6 -10 14 -10 8 0 18 5 21 10 3 6 -3 10 -14 10 -12 0
-21 -4 -21 -10z"/>
<path d="M4000 636 c0 -2 9 -6 20 -9 11 -3 18 -1 14 4 -5 9 -34 13 -34 5z"/>
<path d="M4883 633 c-13 -5 -19 -33 -7 -33 3 0 14 5 25 10 34 19 19 38 -18 23z"/>
<path d="M4130 606 c0 -2 9 -6 20 -9 11 -3 20 -1 20 4 0 5 -9 9 -20 9 -11 0
-20 -2 -20 -4z"/>
<path d="M4733 593 c-16 -6 -17 -33 -2 -33 17 0 49 20 49 30 0 10 -26 12 -47
3z"/>
<path d="M4260 586 c0 -9 40 -13 46 -5 3 5 -6 9 -20 9 -14 0 -26 -2 -26 -4z"/>
<path d="M4375 570 c3 -5 10 -10 16 -10 5 0 9 5 9 10 0 6 -7 10 -16 10 -8 0
-12 -4 -9 -10z"/>
<path d="M4490 550 c0 -5 9 -10 20 -10 11 0 20 5 20 10 0 6 -9 10 -20 10 -11
0 -20 -4 -20 -10z"/>
<path d="M4615 540 c3 -5 10 -10 16 -10 5 0 9 5 9 10 0 6 -7 10 -16 10 -8 0
-12 -4 -9 -10z"/>
</g>
</svg>
