<?xml version="1.0" standalone="no"?>
<!DOCTYPE svg PUBLIC "-//W3C//DTD SVG 20010904//EN"
 "http://www.w3.org/TR/2001/REC-SVG-20010904/DTD/svg10.dtd">
<svg version="1.0" xmlns="http://www.w3.org/2000/svg"
 width="160.000000pt" height="160.000000pt" viewBox="0 0 160.000000 160.000000"
 preserveAspectRatio="xMidYMid meet">
<metadata>
Created by potrace 1.14, written by Peter Selinger 2001-2017
</metadata>
<g transform="translate(0.000000,160.000000) scale(0.100000,-0.100000)"
fill="#000000" stroke="none">
<path d="M613 1554 c-290 -71 -489 -268 -565 -557 -28 -107 -30 -293 -4 -382
71 -247 196 -409 391 -508 52 -26 172 -67 215 -73 123 -17 167 -20 220 -11 19
3 57 9 83 12 119 18 292 105 382 193 71 70 87 90 133 168 36 61 97 204 86 204
-2 0 1 12 7 27 28 73 27 301 -2 355 -5 9 -9 24 -9 33 0 9 -14 49 -31 88 -128
294 -384 465 -704 472 -86 2 -130 -3 -202 -21z"/>
</g>
</svg>
